<?xml version="1.0" encoding="utf-8"?>
<!-- Generator: Adobe Illustrator 19.1.0, SVG Export Plug-In . SVG Version: 6.00 Build 0)  -->
<svg version="1.1" id="Layer_1" xmlns="http://www.w3.org/2000/svg" xmlns:xlink="http://www.w3.org/1999/xlink" x="0px" y="0px"
	 width="21.9px" height="13.9px" viewBox="8 244.1 21.9 13.9" style="enable-background:new 8 244.1 21.9 13.9;"
	 xml:space="preserve">
<style type="text/css">
	.st0{fill:#FFFFFF;}
</style>
<g>
	<path class="st0" d="M29,246.9c0,0.2-0.1,0.3-0.2,0.5l-9.3,9.3c-0.1,0.1-0.3,0.2-0.5,0.2s-0.3-0.1-0.5-0.2l-9.3-9.3
		c-0.1-0.1-0.2-0.3-0.2-0.5s0.1-0.3,0.2-0.5l1-1c0.1-0.1,0.3-0.2,0.5-0.2s0.3,0.1,0.5,0.2l7.9,7.9l7.9-7.9c0.1-0.1,0.3-0.2,0.5-0.2
		s0.3,0.1,0.5,0.2l1,1C29,246.5,29,246.7,29,246.9z"/>
</g>
</svg>
